<svg xmlns="http://www.w3.org/2000/svg" width="1280" height="800" viewBox="0 0 1280 800">
  <defs>
    <linearGradient id="iconGrad" x1="0%" y1="0%" x2="100%" y2="100%">
      <stop offset="0%" style="stop-color:#E6A800"/>
      <stop offset="100%" style="stop-color:#B38200"/>
    </linearGradient>
    <linearGradient id="bgGrad" x1="0%" y1="0%" x2="100%" y2="100%">
      <stop offset="0%" style="stop-color:#F8F9FA"/>
      <stop offset="100%" style="stop-color:#E9ECEF"/>
    </linearGradient>
    <linearGradient id="btnGrad" x1="0%" y1="0%" x2="100%" y2="0%">
      <stop offset="0%" style="stop-color:#E6A800"/>
      <stop offset="100%" style="stop-color:#B38200"/>
    </linearGradient>
  </defs>
  <rect width="1280" height="800" fill="url(#bgGrad)"/>
  
  <g transform="translate(40, 20)">
    <rect x="0" y="0" width="1200" height="760" rx="12" fill="#FFFFFF" stroke="#E5E5E5" stroke-width="1"/>
    
    <!-- Header -->
    <rect x="0" y="0" width="1200" height="64" rx="12" fill="#F1F3F5"/>
    <rect x="0" y="48" width="1200" height="16" fill="#F1F3F5"/>
    
    <rect x="20" y="12" width="40" height="40" rx="8.8" fill="#F8F9FA"/>
    <g transform="translate(40, 32)">
      <!-- Left Screen -->
      <g transform="translate(-8.8, 3.2) rotate(-25)">
        <rect x="-6" y="-10" width="12" height="20" rx="2.4" fill="none" stroke="url(#iconGrad)" stroke-width="1.6"/>
      </g>
      <!-- Right Screen -->
      <g transform="translate(8.8, 3.2) rotate(25)">
        <rect x="-6" y="-10" width="12" height="20" rx="2.4" fill="none" stroke="url(#iconGrad)" stroke-width="1.6"/>
      </g>
      <!-- Center Screen (Top peak) -->
      <g transform="translate(0, -2)">
        <rect x="-7.199999999999999" y="-12" width="14.399999999999999" height="24" rx="3.2" fill="url(#iconGrad)" opacity="0.9"/>
      </g>
    </g>
  
    <text x="72" y="40" fill="#111111" font-family="Inter, sans-serif" font-size="18" font-weight="700">Capture History</text>
    
    <!-- Filter tabs -->
    <rect x="250" y="16" width="60" height="32" rx="8" fill="#E6A800"/>
    <text x="267" y="37" fill="white" font-family="Inter, sans-serif" font-size="12" font-weight="600">All</text>
    <rect x="318" y="16" width="100" height="32" rx="8" fill="#FFFFFF"/>
    <text x="332" y="37" fill="#666666" font-family="Inter, sans-serif" font-size="12">Screenshots</text>
    <rect x="426" y="16" width="100" height="32" rx="8" fill="#FFFFFF"/>
    <text x="440" y="37" fill="#666666" font-family="Inter, sans-serif" font-size="12">Recordings</text>
    
    <!-- Search -->
    <rect x="900" y="16" width="200" height="32" rx="8" fill="#FFFFFF" stroke="#E5E5E5" stroke-width="1"/>
    <text x="920" y="37" fill="#666666" font-family="Inter, sans-serif" font-size="12">🔍 Search...</text>
    
    <!-- Select mode button -->
    <rect x="1110" y="16" width="72" height="32" rx="8" fill="#FFFFFF" stroke="#E5E5E5" stroke-width="1"/>
    <text x="1122" y="37" fill="#666666" font-family="Inter, sans-serif" font-size="12">☑ Select</text>
    
    <!-- Grid of capture cards -->
    
        <rect x="16" y="80" width="278" height="204" rx="10" fill="#F1F3F5" stroke="#E5E5E5" stroke-width="1"/>
        <rect x="24" y="88" width="262" height="148" rx="6" fill="#1a1a3e"/>
        
          <circle cx="155" cy="162" r="20" fill="rgba(0,0,0,0.5)"/>
          <polygon points="149,154 149,170 164,162" fill="white"/>
          <rect x="216" y="210" width="56" height="18" rx="4" fill="rgba(0,0,0,0.6)"/>
          <text x="228" y="223" fill="white" font-size="10" font-family="Inter, sans-serif">0:45</text>
        
        <text x="32" y="256" fill="#111111" font-family="Inter, sans-serif" font-size="11">🎬 Screen Recording</text>
        <text x="32" y="274" fill="#666666" font-family="Inter, sans-serif" font-size="10">Jul 2, 2026 · 2.4 MB</text>
      
        <rect x="16" y="300" width="278" height="204" rx="10" fill="#F1F3F5" stroke="#E5E5E5" stroke-width="1"/>
        <rect x="24" y="308" width="262" height="148" rx="6" fill="#1a2a3e"/>
        
          <rect x="36" y="330" width="222" height="12" rx="3" fill="#666666" opacity="0.15"/>
          <rect x="36" y="350" width="180" height="12" rx="3" fill="#666666" opacity="0.1"/>
          <rect x="36" y="370" width="200" height="12" rx="3" fill="#666666" opacity="0.12"/>
        
        <text x="32" y="476" fill="#111111" font-family="Inter, sans-serif" font-size="11">📷 Screenshot</text>
        <text x="32" y="494" fill="#666666" font-family="Inter, sans-serif" font-size="10">Jul 2, 2026 · 156 KB</text>
      
        <rect x="16" y="520" width="278" height="204" rx="10" fill="#F1F3F5" stroke="#E5E5E5" stroke-width="1"/>
        <rect x="24" y="528" width="262" height="148" rx="6" fill="#2a1a3e"/>
        
          <rect x="36" y="550" width="222" height="12" rx="3" fill="#666666" opacity="0.15"/>
          <rect x="36" y="570" width="180" height="12" rx="3" fill="#666666" opacity="0.1"/>
          <rect x="36" y="590" width="200" height="12" rx="3" fill="#666666" opacity="0.12"/>
        
        <text x="32" y="696" fill="#111111" font-family="Inter, sans-serif" font-size="11">📷 Screenshot</text>
        <text x="32" y="714" fill="#666666" font-family="Inter, sans-serif" font-size="10">Jul 2, 2026 · 156 KB</text>
      
        <rect x="310" y="80" width="278" height="204" rx="10" fill="#F1F3F5" stroke="#E5E5E5" stroke-width="1"/>
        <rect x="318" y="88" width="262" height="148" rx="6" fill="#1a2a3e"/>
        
          <rect x="330" y="110" width="222" height="12" rx="3" fill="#666666" opacity="0.15"/>
          <rect x="330" y="130" width="180" height="12" rx="3" fill="#666666" opacity="0.1"/>
          <rect x="330" y="150" width="200" height="12" rx="3" fill="#666666" opacity="0.12"/>
        
        <text x="326" y="256" fill="#111111" font-family="Inter, sans-serif" font-size="11">📷 Screenshot</text>
        <text x="326" y="274" fill="#666666" font-family="Inter, sans-serif" font-size="10">Jul 2, 2026 · 156 KB</text>
      
        <rect x="310" y="300" width="278" height="204" rx="10" fill="#F1F3F5" stroke="#E5E5E5" stroke-width="1"/>
        <rect x="318" y="308" width="262" height="148" rx="6" fill="#2a1a3e"/>
        
          <rect x="330" y="330" width="222" height="12" rx="3" fill="#666666" opacity="0.15"/>
          <rect x="330" y="350" width="180" height="12" rx="3" fill="#666666" opacity="0.1"/>
          <rect x="330" y="370" width="200" height="12" rx="3" fill="#666666" opacity="0.12"/>
        
        <text x="326" y="476" fill="#111111" font-family="Inter, sans-serif" font-size="11">📷 Screenshot</text>
        <text x="326" y="494" fill="#666666" font-family="Inter, sans-serif" font-size="10">Jul 2, 2026 · 156 KB</text>
      
        <rect x="310" y="520" width="278" height="204" rx="10" fill="#F1F3F5" stroke="#E5E5E5" stroke-width="1"/>
        <rect x="318" y="528" width="262" height="148" rx="6" fill="#1a3a2e"/>
        
          <circle cx="449" cy="602" r="20" fill="rgba(0,0,0,0.5)"/>
          <polygon points="443,594 443,610 458,602" fill="white"/>
          <rect x="510" y="650" width="56" height="18" rx="4" fill="rgba(0,0,0,0.6)"/>
          <text x="522" y="663" fill="white" font-size="10" font-family="Inter, sans-serif">0:45</text>
        
        <text x="326" y="696" fill="#111111" font-family="Inter, sans-serif" font-size="11">🎬 Screen Recording</text>
        <text x="326" y="714" fill="#666666" font-family="Inter, sans-serif" font-size="10">Jul 2, 2026 · 2.4 MB</text>
      
        <rect x="604" y="80" width="278" height="204" rx="10" fill="#F1F3F5" stroke="#E5E5E5" stroke-width="1"/>
        <rect x="612" y="88" width="262" height="148" rx="6" fill="#2a1a3e"/>
        
          <rect x="624" y="110" width="222" height="12" rx="3" fill="#666666" opacity="0.15"/>
          <rect x="624" y="130" width="180" height="12" rx="3" fill="#666666" opacity="0.1"/>
          <rect x="624" y="150" width="200" height="12" rx="3" fill="#666666" opacity="0.12"/>
        
        <text x="620" y="256" fill="#111111" font-family="Inter, sans-serif" font-size="11">📷 Screenshot</text>
        <text x="620" y="274" fill="#666666" font-family="Inter, sans-serif" font-size="10">Jul 2, 2026 · 156 KB</text>
      
        <rect x="604" y="300" width="278" height="204" rx="10" fill="#F1F3F5" stroke="#E5E5E5" stroke-width="1"/>
        <rect x="612" y="308" width="262" height="148" rx="6" fill="#1a3a2e"/>
        
          <circle cx="743" cy="382" r="20" fill="rgba(0,0,0,0.5)"/>
          <polygon points="737,374 737,390 752,382" fill="white"/>
          <rect x="804" y="430" width="56" height="18" rx="4" fill="rgba(0,0,0,0.6)"/>
          <text x="816" y="443" fill="white" font-size="10" font-family="Inter, sans-serif">0:45</text>
        
        <text x="620" y="476" fill="#111111" font-family="Inter, sans-serif" font-size="11">🎬 Screen Recording</text>
        <text x="620" y="494" fill="#666666" font-family="Inter, sans-serif" font-size="10">Jul 2, 2026 · 2.4 MB</text>
      
        <rect x="604" y="520" width="278" height="204" rx="10" fill="#F1F3F5" stroke="#E5E5E5" stroke-width="1"/>
        <rect x="612" y="528" width="262" height="148" rx="6" fill="#3a1a2e"/>
        
          <rect x="624" y="550" width="222" height="12" rx="3" fill="#666666" opacity="0.15"/>
          <rect x="624" y="570" width="180" height="12" rx="3" fill="#666666" opacity="0.1"/>
          <rect x="624" y="590" width="200" height="12" rx="3" fill="#666666" opacity="0.12"/>
        
        <text x="620" y="696" fill="#111111" font-family="Inter, sans-serif" font-size="11">📷 Screenshot</text>
        <text x="620" y="714" fill="#666666" font-family="Inter, sans-serif" font-size="10">Jul 2, 2026 · 156 KB</text>
      
        <rect x="898" y="80" width="278" height="204" rx="10" fill="#F1F3F5" stroke="#E5E5E5" stroke-width="1"/>
        <rect x="906" y="88" width="262" height="148" rx="6" fill="#1a3a2e"/>
        
          <circle cx="1037" cy="162" r="20" fill="rgba(0,0,0,0.5)"/>
          <polygon points="1031,154 1031,170 1046,162" fill="white"/>
          <rect x="1098" y="210" width="56" height="18" rx="4" fill="rgba(0,0,0,0.6)"/>
          <text x="1110" y="223" fill="white" font-size="10" font-family="Inter, sans-serif">0:45</text>
        
        <text x="914" y="256" fill="#111111" font-family="Inter, sans-serif" font-size="11">🎬 Screen Recording</text>
        <text x="914" y="274" fill="#666666" font-family="Inter, sans-serif" font-size="10">Jul 2, 2026 · 2.4 MB</text>
      
        <rect x="898" y="300" width="278" height="204" rx="10" fill="#F1F3F5" stroke="#E5E5E5" stroke-width="1"/>
        <rect x="906" y="308" width="262" height="148" rx="6" fill="#3a1a2e"/>
        
          <rect x="918" y="330" width="222" height="12" rx="3" fill="#666666" opacity="0.15"/>
          <rect x="918" y="350" width="180" height="12" rx="3" fill="#666666" opacity="0.1"/>
          <rect x="918" y="370" width="200" height="12" rx="3" fill="#666666" opacity="0.12"/>
        
        <text x="914" y="476" fill="#111111" font-family="Inter, sans-serif" font-size="11">📷 Screenshot</text>
        <text x="914" y="494" fill="#666666" font-family="Inter, sans-serif" font-size="10">Jul 2, 2026 · 156 KB</text>
      
        <rect x="898" y="520" width="278" height="204" rx="10" fill="#F1F3F5" stroke="#E5E5E5" stroke-width="1"/>
        <rect x="906" y="528" width="262" height="148" rx="6" fill="#1a2a2e"/>
        
          <rect x="918" y="550" width="222" height="12" rx="3" fill="#666666" opacity="0.15"/>
          <rect x="918" y="570" width="180" height="12" rx="3" fill="#666666" opacity="0.1"/>
          <rect x="918" y="590" width="200" height="12" rx="3" fill="#666666" opacity="0.12"/>
        
        <text x="914" y="696" fill="#111111" font-family="Inter, sans-serif" font-size="11">📷 Screenshot</text>
        <text x="914" y="714" fill="#666666" font-family="Inter, sans-serif" font-size="10">Jul 2, 2026 · 156 KB</text>
      
  </g>
  
  <text x="640" y="790" fill="#666666" font-family="Inter, sans-serif" font-size="14" text-anchor="middle">Capture history with search, filter, batch operations, and quick preview</text>
</svg>