<svg xmlns="http://www.w3.org/2000/svg" width="440" height="280" viewBox="0 0 440 280">
  <defs>
    <linearGradient id="iconGrad" x1="0%" y1="0%" x2="100%" y2="100%">
      <stop offset="0%" style="stop-color:#FCEABB"/>
      <stop offset="100%" style="stop-color:#F8B500"/>
    </linearGradient>
    <linearGradient id="bgGrad" x1="0%" y1="0%" x2="100%" y2="100%">
      <stop offset="0%" style="stop-color:#0A0A0A"/>
      <stop offset="100%" style="stop-color:#141414"/>
    </linearGradient>
    <linearGradient id="btnGrad" x1="0%" y1="0%" x2="100%" y2="0%">
      <stop offset="0%" style="stop-color:#FCEABB"/>
      <stop offset="100%" style="stop-color:#F8B500"/>
    </linearGradient>
  </defs>
  <rect width="440" height="280" fill="url(#bgGrad)"/>
  <circle cx="220" cy="140" r="250" fill="#FCEABB" opacity="0.06"/>
  <circle cx="380" cy="220" r="180" fill="#F8B500" opacity="0.05"/>
  
    <rect x="15" y="50" width="80" height="80" rx="17.6" fill="#0A0A0A"/>
    <g transform="translate(55, 90)">
      <!-- Left Screen -->
      <g transform="translate(-17.6, 6.4) rotate(-25)">
        <rect x="-12" y="-20" width="24" height="40" rx="4.8" fill="none" stroke="url(#iconGrad)" stroke-width="3.2"/>
      </g>
      <!-- Right Screen -->
      <g transform="translate(17.6, 6.4) rotate(25)">
        <rect x="-12" y="-20" width="24" height="40" rx="4.8" fill="none" stroke="url(#iconGrad)" stroke-width="3.2"/>
      </g>
      <!-- Center Screen (Top peak) -->
      <g transform="translate(0, -4)">
        <rect x="-14.399999999999999" y="-24" width="28.799999999999997" height="48" rx="6.4" fill="url(#iconGrad)" opacity="0.9"/>
      </g>
    </g>
  
  <text x="105" y="100" fill="#F5F5F5" font-family="Arial, sans-serif" font-size="48" font-weight="800">ScreenKing</text>
  <text x="130" y="140" fill="#A0A0A0" font-family="sans-serif" font-size="22">截图与录屏工具</text>
  <rect x="30" y="180" width="120" height="40" rx="20" fill="#FCEABB" opacity="0.2" stroke="#FCEABB" stroke-width="2"/>
  <text x="90" y="206" fill="#FCEABB" font-family="sans-serif" font-size="18" text-anchor="middle" font-weight="700">截图</text>
  <rect x="165" y="180" width="110" height="40" rx="20" fill="#F8B500" opacity="0.2" stroke="#F8B500" stroke-width="2"/>
  <text x="220" y="206" fill="#F8B500" font-family="sans-serif" font-size="18" text-anchor="middle" font-weight="700">录制</text>
  <rect x="290" y="180" width="120" height="40" rx="20" fill="#F8B500" opacity="0.2" stroke="#F8B500" stroke-width="2"/>
  <text x="350" y="206" fill="#F8B500" font-family="sans-serif" font-size="18" text-anchor="middle" font-weight="700">标注</text>
  <text x="220" y="256" fill="#A0A0A0" font-family="sans-serif" font-size="18" text-anchor="middle">一站式 · 免费 · 开源</text>
</svg>