<svg xmlns="http://www.w3.org/2000/svg" width="1280" height="800" viewBox="0 0 1280 800">
  <defs>
    <linearGradient id="iconGrad" x1="0%" y1="0%" x2="100%" y2="100%">
      <stop offset="0%" style="stop-color:#FCEABB"/>
      <stop offset="100%" style="stop-color:#F8B500"/>
    </linearGradient>
    <linearGradient id="bgGrad" x1="0%" y1="0%" x2="100%" y2="100%">
      <stop offset="0%" style="stop-color:#0A0A0A"/>
      <stop offset="100%" style="stop-color:#141414"/>
    </linearGradient>
    <linearGradient id="btnGrad" x1="0%" y1="0%" x2="100%" y2="0%">
      <stop offset="0%" style="stop-color:#FCEABB"/>
      <stop offset="100%" style="stop-color:#F8B500"/>
    </linearGradient>
  
    <filter id="blurFilter"><feGaussianBlur in="SourceGraphic" stdDeviation="6"/></filter>
  </defs>
  <rect width="1280" height="800" fill="url(#bgGrad)"/>
  <g transform="translate(60, 30)">
    <rect x="0" y="0" width="1160" height="740" rx="12" fill="#141414" stroke="#2A2A2A" stroke-width="1"/>
    <rect x="0" y="0" width="1160" height="56" rx="12" fill="#1C1C1C" stroke="#2A2A2A" stroke-width="1"/>
    <rect x="0" y="40" width="1160" height="16" fill="#1C1C1C"/>
    <!-- Tool buttons -->
    <rect x="16" y="10" width="36" height="36" rx="8" fill="#FCEABB" opacity="0.25" stroke="#FCEABB" stroke-width="1.5"/>
    <text x="26" y="34" fill="#FCEABB" font-size="16">✏️</text>
    <rect x="60" y="10" width="36" height="36" rx="8" fill="#141414" stroke="#2A2A2A" stroke-width="0.5"/>
    <text x="70" y="34" fill="#A0A0A0" font-size="16">📝</text>
    <rect x="104" y="10" width="36" height="36" rx="8" fill="#141414" stroke="#2A2A2A" stroke-width="0.5"/>
    <text x="114" y="34" fill="#A0A0A0" font-size="16">⬜</text>
    <rect x="148" y="10" width="36" height="36" rx="8" fill="#141414" stroke="#2A2A2A" stroke-width="0.5"/>
    <text x="158" y="34" fill="#A0A0A0" font-size="16">⭕</text>
    <rect x="192" y="10" width="36" height="36" rx="8" fill="#141414" stroke="#2A2A2A" stroke-width="0.5"/>
    <text x="202" y="34" fill="#A0A0A0" font-size="16">➡️</text>
    <rect x="236" y="10" width="36" height="36" rx="8" fill="#141414" stroke="#2A2A2A" stroke-width="0.5"/>
    <text x="246" y="34" fill="#A0A0A0" font-size="16">🔤</text>
    <rect x="280" y="10" width="36" height="36" rx="8" fill="#141414" stroke="#2A2A2A" stroke-width="0.5"/>
    <text x="290" y="34" fill="#A0A0A0" font-size="16">🌫️</text>
    <rect x="324" y="10" width="36" height="36" rx="8" fill="#141414" stroke="#2A2A2A" stroke-width="0.5"/>
    <text x="334" y="34" fill="#A0A0A0" font-size="16">✂️</text>
    <line x1="380" y1="12" x2="380" y2="44" stroke="#2A2A2A" stroke-width="1"/>
    <circle cx="408" cy="28" r="12" fill="#EF4444" stroke="white" stroke-width="2"/>
    <circle cx="438" cy="28" r="12" fill="#F59E0B"/>
    <circle cx="468" cy="28" r="12" fill="#22C55E"/>
    <circle cx="498" cy="28" r="12" fill="#3B82F6"/>
    <circle cx="528" cy="28" r="12" fill="#8B5CF6"/>
    <circle cx="558" cy="28" r="12" fill="white"/>
    <line x1="590" y1="12" x2="590" y2="44" stroke="#2A2A2A" stroke-width="1"/>
    <text x="610" y="32" fill="#A0A0A0" font-family="sans-serif" font-size="11">粗细</text>
    <rect x="646" y="22" width="80" height="6" rx="3" fill="#0A0A0A"/>
    <rect x="646" y="22" width="50" height="6" rx="3" fill="#EF4444"/>
    <circle cx="696" cy="25" r="6" fill="white"/>
    <rect x="790" y="10" width="36" height="36" rx="8" fill="#141414" stroke="#2A2A2A" stroke-width="0.5"/>
    <text x="800" y="34" fill="#A0A0A0" font-size="14">↩️</text>
    <rect x="832" y="10" width="36" height="36" rx="8" fill="#141414" stroke="#2A2A2A" stroke-width="0.5"/>
    <text x="842" y="34" fill="#A0A0A0" font-size="14" opacity="0.4">↪️</text>
    <rect x="920" y="10" width="100" height="36" rx="8" fill="#141414" stroke="#2A2A2A" stroke-width="1"/>
    <text x="940" y="34" fill="#F5F5F5" font-family="sans-serif" font-size="12">💾 保存</text>
    <rect x="1030" y="10" width="115" height="36" rx="8" fill="url(#btnGrad)"/>
    <text x="1050" y="34" fill="white" font-family="sans-serif" font-size="12" font-weight="600">📋 复制</text>
    
    <!-- Canvas: webpage screenshot -->
    <rect x="20" y="66" width="1120" height="660" rx="8" fill="#f8f9fa"/>
    <rect x="20" y="66" width="1120" height="40" rx="8" fill="#e9ecef"/>
    <rect x="20" y="98" width="1120" height="8" fill="#e9ecef"/>
    <circle cx="44" cy="86" r="6" fill="#ff5f57"/>
    <circle cx="64" cy="86" r="6" fill="#ffbd2e"/>
    <circle cx="84" cy="86" r="6" fill="#28c840"/>
    <rect x="120" y="78" width="350" height="18" rx="9" fill="white" stroke="#d1d5db" stroke-width="0.5"/>
    <text x="140" y="91" fill="#6b7280" font-family="sans-serif" font-size="10">example.com/dashboard</text>
    <rect x="20" y="106" width="1120" height="60" fill="#1e293b"/>
    <text x="60" y="142" fill="white" font-family="sans-serif" font-size="18" font-weight="700">Dashboard</text>
    <rect x="900" y="124" width="80" height="30" rx="6" fill="#3b82f6"/>
    <text x="918" y="144" fill="white" font-family="sans-serif" font-size="11">Settings</text>
    <rect x="990" y="124" width="110" height="30" rx="6" fill="#8b5cf6"/>
    <text x="1010" y="144" fill="white" font-family="sans-serif" font-size="11">+ New Item</text>
    <rect x="40" y="186" width="520" height="200" rx="8" fill="white" stroke="#e5e7eb" stroke-width="1"/>
    <text x="60" y="216" fill="#1e293b" font-family="sans-serif" font-size="14" font-weight="600">Monthly Revenue</text>
    <text x="60" y="240" fill="#6b7280" font-family="sans-serif" font-size="11">Last 30 days performance</text>
    <rect x="60" y="340" width="40" height="30" rx="3" fill="#c7d2fe"/>
    <rect x="110" y="320" width="40" height="50" rx="3" fill="#c7d2fe"/>
    <rect x="160" y="300" width="40" height="70" rx="3" fill="#c7d2fe"/>
    <rect x="210" y="290" width="40" height="80" rx="3" fill="#a5b4fc"/>
    <rect x="260" y="270" width="40" height="100" rx="3" fill="#818cf8"/>
    <rect x="310" y="280" width="40" height="90" rx="3" fill="#818cf8"/>
    <rect x="360" y="260" width="40" height="110" rx="3" fill="#6366f1"/>
    <rect x="410" y="290" width="40" height="80" rx="3" fill="#818cf8"/>
    <rect x="460" y="310" width="40" height="60" rx="3" fill="#a5b4fc"/>
    <rect x="580" y="186" width="540" height="90" rx="8" fill="white" stroke="#e5e7eb" stroke-width="1"/>
    <text x="600" y="216" fill="#1e293b" font-family="sans-serif" font-size="13" font-weight="600">Total Users</text>
    <text x="600" y="240" fill="#6366f1" font-family="sans-serif" font-size="22" font-weight="700">12,847</text>
    <text x="600" y="260" fill="#22c55e" font-family="sans-serif" font-size="11">▲ 12.5%</text>
    <rect x="580" y="286" width="540" height="90" rx="8" fill="white" stroke="#e5e7eb" stroke-width="1"/>
    <text x="600" y="316" fill="#1e293b" font-family="sans-serif" font-size="13" font-weight="600">Active Sessions</text>
    <text x="600" y="340" fill="#6366f1" font-family="sans-serif" font-size="22" font-weight="700">3,291</text>
    <text x="600" y="360" fill="#22c55e" font-family="sans-serif" font-size="11">▲ 8.3%</text>
    <rect x="40" y="406" width="1080" height="300" rx="8" fill="white" stroke="#e5e7eb" stroke-width="1"/>
    <text x="60" y="436" fill="#1e293b" font-family="sans-serif" font-size="14" font-weight="600">Recent Orders</text>
    <rect x="40" y="450" width="1080" height="30" fill="#f9fafb"/>
    <text x="60" y="470" fill="#6b7280" font-family="sans-serif" font-size="11" font-weight="600">Order ID</text>
    <text x="240" y="470" fill="#6b7280" font-family="sans-serif" font-size="11" font-weight="600">Customer</text>
    <text x="500" y="470" fill="#6b7280" font-family="sans-serif" font-size="11" font-weight="600">Email</text>
    <text x="780" y="470" fill="#6b7280" font-family="sans-serif" font-size="11" font-weight="600">Amount</text>
    <text x="960" y="470" fill="#6b7280" font-family="sans-serif" font-size="11" font-weight="600">Status</text>
    <text x="60" y="505" fill="#374151" font-family="sans-serif" font-size="11">#ORD-7291</text>
    <text x="240" y="505" fill="#374151" font-family="sans-serif" font-size="11">Sarah Johnson</text>
    <text x="500" y="505" fill="#6b7280" font-family="sans-serif" font-size="11">sarah@example.com</text>
    <text x="780" y="505" fill="#374151" font-family="sans-serif" font-size="11" font-weight="600">$299.00</text>
    <rect x="960" y="492" width="70" height="20" rx="10" fill="#dcfce7"/>
    <text x="978" y="506" fill="#16a34a" font-family="sans-serif" font-size="10" font-weight="600">Completed</text>
    <line x1="40" y1="518" x2="1120" y2="518" stroke="#f3f4f6" stroke-width="1"/>
    <text x="60" y="540" fill="#374151" font-family="sans-serif" font-size="11">#ORD-7290</text>
    <text x="240" y="540" fill="#374151" font-family="sans-serif" font-size="11">Mike Chen</text>
    <text x="500" y="540" fill="#6b7280" font-family="sans-serif" font-size="11">mike@example.com</text>
    <text x="780" y="540" fill="#374151" font-family="sans-serif" font-size="11" font-weight="600">$149.50</text>
    <rect x="960" y="527" width="60" height="20" rx="10" fill="#fef9c3"/>
    <text x="973" y="541" fill="#a16207" font-family="sans-serif" font-size="10" font-weight="600">Pending</text>
    <line x1="40" y1="553" x2="1120" y2="553" stroke="#f3f4f6" stroke-width="1"/>
    <text x="60" y="575" fill="#374151" font-family="sans-serif" font-size="11">#ORD-7289</text>
    <text x="240" y="575" fill="#374151" font-family="sans-serif" font-size="11">Emily Davis</text>
    <text x="500" y="575" fill="#6b7280" font-family="sans-serif" font-size="11">emily@example.com</text>
    <text x="780" y="575" fill="#374151" font-family="sans-serif" font-size="11" font-weight="600">$89.99</text>

    <!-- ANNOTATIONS (Chinese labels) -->
    <line x1="480" y1="210" x2="400" y2="260" stroke="#EF4444" stroke-width="4" stroke-linecap="round"/>
    <polygon points="400,260 415,248 408,264" fill="#EF4444"/>
    <ellipse cx="660" cy="238" rx="80" ry="20" fill="none" stroke="#EF4444" stroke-width="3"/>
    <rect x="740" y="208" width="180" height="36" rx="6" fill="#EF4444" opacity="0.9"/>
    <text x="755" y="232" fill="white" font-family="sans-serif" font-size="14" font-weight="700">关键指标！</text>
    <line x1="740" y1="230" x2="720" y2="238" stroke="#EF4444" stroke-width="2"/>
    <path d="M58,218 Q100,225 180,218 Q220,215 260,220 Q300,224 340,218" fill="none" stroke="#F59E0B" stroke-width="3" stroke-linecap="round"/>
    <rect x="985" y="118" width="122" height="42" rx="4" fill="none" stroke="#22C55E" stroke-width="3" stroke-dasharray="8,4"/>
    <text x="990" y="112" fill="#22C55E" font-family="sans-serif" font-size="11" font-weight="700">点击这里 →</text>
    <rect x="494" y="490" width="260" height="100" rx="4" fill="#1C1C1C" opacity="0.85" filter="url(#blurFilter)"/>
    <rect x="494" y="490" width="260" height="100" rx="4" fill="none" stroke="#A0A0A0" stroke-width="1" stroke-dasharray="4,3"/>
    <text x="570" y="545" fill="#F5F5F5" font-family="sans-serif" font-size="13" font-weight="600" text-anchor="middle" opacity="0.7">🔒 已模糊</text>
  </g>
  <text x="640" y="790" fill="#A0A0A0" font-family="sans-serif" font-size="14" text-anchor="middle">强大的标注编辑器：画笔、文字、箭头、模糊等丰富工具</text>
</svg>