<svg xmlns="http://www.w3.org/2000/svg" width="1280" height="800" viewBox="0 0 1280 800">
  <defs>
    <linearGradient id="iconGrad" x1="0%" y1="0%" x2="100%" y2="100%">
      <stop offset="0%" style="stop-color:#FCEABB"/>
      <stop offset="100%" style="stop-color:#F8B500"/>
    </linearGradient>
    <linearGradient id="bgGrad" x1="0%" y1="0%" x2="100%" y2="100%">
      <stop offset="0%" style="stop-color:#0A0A0A"/>
      <stop offset="100%" style="stop-color:#141414"/>
    </linearGradient>
    <linearGradient id="btnGrad" x1="0%" y1="0%" x2="100%" y2="0%">
      <stop offset="0%" style="stop-color:#FCEABB"/>
      <stop offset="100%" style="stop-color:#F8B500"/>
    </linearGradient>
  </defs>
  <rect width="1280" height="800" fill="url(#bgGrad)"/>
  
  <!-- Background decoration -->
  <circle cx="200" cy="600" r="300" fill="#FCEABB" opacity="0.03"/>
  <circle cx="1100" cy="200" r="250" fill="#F8B500" opacity="0.03"/>
  
  <!-- Centered popup mockup -->
  <g transform="translate(390, 60)">
    <!-- Popup frame -->
    <rect x="0" y="0" width="500" height="680" rx="16" fill="#141414" stroke="#2A2A2A" stroke-width="1"/>
    
    <!-- Header -->
    <rect x="0" y="0" width="500" height="70" rx="16" fill="#1C1C1C"/>
    <rect x="0" y="50" width="500" height="20" fill="#1C1C1C"/>
    
    <rect x="20" y="15" width="40" height="40" rx="8.8" fill="#0A0A0A"/>
    <g transform="translate(40, 35)">
      <!-- Left Screen -->
      <g transform="translate(-8.8, 3.2) rotate(-25)">
        <rect x="-6" y="-10" width="12" height="20" rx="2.4" fill="none" stroke="url(#iconGrad)" stroke-width="1.6"/>
      </g>
      <!-- Right Screen -->
      <g transform="translate(8.8, 3.2) rotate(25)">
        <rect x="-6" y="-10" width="12" height="20" rx="2.4" fill="none" stroke="url(#iconGrad)" stroke-width="1.6"/>
      </g>
      <!-- Center Screen (Top peak) -->
      <g transform="translate(0, -2)">
        <rect x="-7.199999999999999" y="-12" width="14.399999999999999" height="24" rx="3.2" fill="url(#iconGrad)" opacity="0.9"/>
      </g>
    </g>
  
    <text x="72" y="42" fill="#F5F5F5" font-family="Inter, sans-serif" font-size="18" font-weight="700">ScreenKing</text>
    <text x="178" y="42" fill="#A0A0A0" font-family="Inter, sans-serif" font-size="12">v3.0.1</text>
    
    <!-- Settings gear -->
    <circle cx="440" cy="35" r="16" fill="#141414" stroke="#2A2A2A" stroke-width="1"/>
    <text x="435" y="40" fill="#A0A0A0" font-family="Inter, sans-serif" font-size="14">⚙</text>
    
    <!-- History icon -->
    <circle cx="472" cy="35" r="16" fill="#141414" stroke="#2A2A2A" stroke-width="1"/>
    <text x="467" y="40" fill="#A0A0A0" font-family="Inter, sans-serif" font-size="14">📋</text>
    
    <!-- Screenshot Section -->
    <text x="24" y="104" fill="#F5F5F5" font-family="Inter, sans-serif" font-size="14" font-weight="600">📷 Screenshot</text>
    
    <!-- Capture Visible -->
    <rect x="16" y="118" width="468" height="52" rx="10" fill="#1C1C1C" stroke="#2A2A2A" stroke-width="1"/>
    <text x="52" y="150" fill="#F5F5F5" font-family="Inter, sans-serif" font-size="13">Capture Visible Area</text>
    <rect x="350" y="132" width="120" height="24" rx="6" fill="#0A0A0A" stroke="#2A2A2A" stroke-width="1"/>
    <text x="368" y="149" fill="#A0A0A0" font-family="Inter, monospace" font-size="11">Alt+Shift+V</text>
    
    <!-- Full Page -->
    <rect x="16" y="178" width="468" height="52" rx="10" fill="#1C1C1C" stroke="#2A2A2A" stroke-width="1"/>
    <text x="52" y="210" fill="#F5F5F5" font-family="Inter, sans-serif" font-size="13">Capture Full Page</text>
    <rect x="350" y="192" width="120" height="24" rx="6" fill="#0A0A0A" stroke="#2A2A2A" stroke-width="1"/>
    <text x="368" y="209" fill="#A0A0A0" font-family="Inter, monospace" font-size="11">Alt+Shift+F</text>
    
    <!-- Select Region -->
    <rect x="16" y="238" width="468" height="52" rx="10" fill="#1C1C1C" stroke="#2A2A2A" stroke-width="1"/>
    <text x="52" y="270" fill="#F5F5F5" font-family="Inter, sans-serif" font-size="13">Select Region</text>
    <rect x="350" y="252" width="120" height="24" rx="6" fill="#0A0A0A" stroke="#2A2A2A" stroke-width="1"/>
    <text x="368" y="269" fill="#A0A0A0" font-family="Inter, monospace" font-size="11">Alt+Shift+S</text>

    <!-- Recording Section -->
    <text x="24" y="326" fill="#F5F5F5" font-family="Inter, sans-serif" font-size="14" font-weight="600">🎬 Recording</text>
    
    <!-- Record Tab -->
    <rect x="16" y="340" width="468" height="52" rx="10" fill="#1C1C1C" stroke="#2A2A2A" stroke-width="1"/>
    <text x="52" y="372" fill="#F5F5F5" font-family="Inter, sans-serif" font-size="13">Record Current Tab</text>
    
    <!-- Record Desktop -->
    <rect x="16" y="400" width="468" height="52" rx="10" fill="#1C1C1C" stroke="#2A2A2A" stroke-width="1"/>
    <text x="52" y="432" fill="#F5F5F5" font-family="Inter, sans-serif" font-size="13">Record Desktop</text>

    <!-- Sharing Section -->
    <text x="24" y="490" fill="#F5F5F5" font-family="Inter, sans-serif" font-size="14" font-weight="600">🔗 Sharing</text>
    
    <rect x="16" y="504" width="468" height="52" rx="10" fill="#1C1C1C" stroke="#2A2A2A" stroke-width="1"/>
    <text x="52" y="536" fill="#F5F5F5" font-family="Inter, sans-serif" font-size="13">Share to Web</text>
    
    <!-- Toggle -->
    <rect x="16" y="570" width="468" height="52" rx="10" fill="#1C1C1C" stroke="#2A2A2A" stroke-width="1"/>
    <text x="52" y="602" fill="#F5F5F5" font-family="Inter, sans-serif" font-size="13">Auto Copy to Clipboard</text>
    <rect x="424" y="586" width="44" height="24" rx="12" fill="#FCEABB"/>
    <circle cx="454" cy="598" r="9" fill="white"/>
  </g>
  
  <!-- Title text -->
  <text x="640" y="775" fill="#A0A0A0" font-family="Inter, sans-serif" font-size="14" text-anchor="middle">Clean, intuitive popup for quick access to all capture modes</text>
</svg>