<svg xmlns="http://www.w3.org/2000/svg" width="440" height="280" viewBox="0 0 440 280">
  <defs>
    <linearGradient id="iconGrad" x1="0%" y1="0%" x2="100%" y2="100%">
      <stop offset="0%" style="stop-color:#6C63FF"/>
      <stop offset="100%" style="stop-color:#00D4FF"/>
    </linearGradient>
    <linearGradient id="bgGrad" x1="0%" y1="0%" x2="100%" y2="100%">
      <stop offset="0%" style="stop-color:#0C0C14"/>
      <stop offset="100%" style="stop-color:#141428"/>
    </linearGradient>
    <linearGradient id="btnGrad" x1="0%" y1="0%" x2="100%" y2="0%">
      <stop offset="0%" style="stop-color:#6C63FF"/>
      <stop offset="100%" style="stop-color:#00D4FF"/>
    </linearGradient>
  </defs>
  <rect width="440" height="280" fill="url(#bgGrad)"/>
  <circle cx="220" cy="140" r="250" fill="#6C63FF" opacity="0.06"/>
  <circle cx="380" cy="220" r="180" fill="#00D4FF" opacity="0.05"/>
  
    <rect x="15" y="50" width="80" height="80" rx="17.6" fill="#0C0C14"/>
    <circle cx="55" cy="94" r="17.6" fill="none" stroke="url(#iconGrad)" stroke-width="4.4"/>
    <circle cx="55" cy="94" r="7.199999999999999" fill="url(#iconGrad)" opacity="0.9"/>
    <path d="
      M 37.4 81.2
      L 34.2 65.2
      L 46.2 73.2
      L 55 60.4
      L 63.8 73.2
      L 75.8 65.2
      L 72.6 81.2
    " fill="none" stroke="url(#iconGrad)" stroke-width="4.4" stroke-linejoin="round" stroke-linecap="round"/>
    <path d="
      M 43 116.4
      L 32.599999999999994 116.4
      L 32.599999999999994 106
    " fill="none" stroke="url(#iconGrad)" stroke-width="3.2" stroke-linecap="round" stroke-linejoin="round"/>
    <path d="
      M 67 116.4
      L 77.4 116.4
      L 77.4 106
    " fill="none" stroke="url(#iconGrad)" stroke-width="3.2" stroke-linecap="round" stroke-linejoin="round"/>
  
  <text x="105" y="100" fill="#E8E8F0" font-family="Arial, sans-serif" font-size="48" font-weight="800">ScreenKing</text>
  <text x="130" y="140" fill="#8888AA" font-family="sans-serif" font-size="22">截图与录屏工具</text>
  <rect x="30" y="180" width="120" height="40" rx="20" fill="#6C63FF" opacity="0.2" stroke="#6C63FF" stroke-width="2"/>
  <text x="90" y="206" fill="#6C63FF" font-family="sans-serif" font-size="18" text-anchor="middle" font-weight="700">截图</text>
  <rect x="165" y="180" width="110" height="40" rx="20" fill="#00D4FF" opacity="0.2" stroke="#00D4FF" stroke-width="2"/>
  <text x="220" y="206" fill="#00D4FF" font-family="sans-serif" font-size="18" text-anchor="middle" font-weight="700">录制</text>
  <rect x="290" y="180" width="120" height="40" rx="20" fill="#22C55E" opacity="0.2" stroke="#22C55E" stroke-width="2"/>
  <text x="350" y="206" fill="#22C55E" font-family="sans-serif" font-size="18" text-anchor="middle" font-weight="700">标注</text>
  <text x="220" y="256" fill="#8888AA" font-family="sans-serif" font-size="18" text-anchor="middle">一站式 · 免费 · 开源</text>
</svg>