<svg xmlns="http://www.w3.org/2000/svg" width="1280" height="800" viewBox="0 0 1280 800">
  <defs>
    <linearGradient id="iconGrad" x1="0%" y1="0%" x2="100%" y2="100%">
      <stop offset="0%" style="stop-color:#6C63FF"/>
      <stop offset="100%" style="stop-color:#00D4FF"/>
    </linearGradient>
    <linearGradient id="bgGrad" x1="0%" y1="0%" x2="100%" y2="100%">
      <stop offset="0%" style="stop-color:#0C0C14"/>
      <stop offset="100%" style="stop-color:#141428"/>
    </linearGradient>
    <linearGradient id="btnGrad" x1="0%" y1="0%" x2="100%" y2="0%">
      <stop offset="0%" style="stop-color:#6C63FF"/>
      <stop offset="100%" style="stop-color:#00D4FF"/>
    </linearGradient>
  </defs>
  <rect width="1280" height="800" fill="url(#bgGrad)"/>
  <circle cx="200" cy="600" r="300" fill="#6C63FF" opacity="0.03"/>
  <circle cx="1100" cy="200" r="250" fill="#00D4FF" opacity="0.03"/>
  <g transform="translate(390, 60)">
    <rect x="0" y="0" width="500" height="680" rx="16" fill="#141420" stroke="#2A2A40" stroke-width="1"/>
    <rect x="0" y="0" width="500" height="70" rx="16" fill="#1C1C2E"/>
    <rect x="0" y="50" width="500" height="20" fill="#1C1C2E"/>
    
    <rect x="20" y="15" width="40" height="40" rx="8.8" fill="#0C0C14"/>
    <circle cx="40" cy="37" r="8.8" fill="none" stroke="url(#iconGrad)" stroke-width="2.2"/>
    <circle cx="40" cy="37" r="3.5999999999999996" fill="url(#iconGrad)" opacity="0.9"/>
    <path d="
      M 31.2 30.6
      L 29.6 22.6
      L 35.6 26.6
      L 40 20.2
      L 44.4 26.6
      L 50.4 22.6
      L 48.8 30.6
    " fill="none" stroke="url(#iconGrad)" stroke-width="2.2" stroke-linejoin="round" stroke-linecap="round"/>
    <path d="
      M 34 48.2
      L 28.799999999999997 48.2
      L 28.799999999999997 43
    " fill="none" stroke="url(#iconGrad)" stroke-width="1.6" stroke-linecap="round" stroke-linejoin="round"/>
    <path d="
      M 46 48.2
      L 51.2 48.2
      L 51.2 43
    " fill="none" stroke="url(#iconGrad)" stroke-width="1.6" stroke-linecap="round" stroke-linejoin="round"/>
  
    <text x="72" y="42" fill="#E8E8F0" font-family="sans-serif" font-size="18" font-weight="700">ScreenKing</text>
    <text x="24" y="104" fill="#E8E8F0" font-family="sans-serif" font-size="14" font-weight="600">📷 截图</text>
    <rect x="16" y="118" width="468" height="52" rx="10" fill="#1C1C2E" stroke="#2A2A40" stroke-width="1"/>
    <text x="52" y="150" fill="#E8E8F0" font-family="sans-serif" font-size="13">截取可见区域</text>
    <rect x="350" y="132" width="120" height="24" rx="6" fill="#0C0C14" stroke="#2A2A40" stroke-width="1"/>
    <text x="368" y="149" fill="#8888AA" font-family="monospace" font-size="11">Alt+Shift+V</text>
    <rect x="16" y="178" width="468" height="52" rx="10" fill="#1C1C2E" stroke="#2A2A40" stroke-width="1"/>
    <text x="52" y="210" fill="#E8E8F0" font-family="sans-serif" font-size="13">截取整页</text>
    <rect x="16" y="238" width="468" height="52" rx="10" fill="#1C1C2E" stroke="#2A2A40" stroke-width="1"/>
    <text x="52" y="270" fill="#E8E8F0" font-family="sans-serif" font-size="13">选取区域</text>
    <text x="24" y="326" fill="#E8E8F0" font-family="sans-serif" font-size="14" font-weight="600">🎬 录制</text>
    <rect x="16" y="340" width="468" height="52" rx="10" fill="#1C1C2E" stroke="#2A2A40" stroke-width="1"/>
    <text x="52" y="372" fill="#E8E8F0" font-family="sans-serif" font-size="13">录制当前标签页</text>
    <rect x="16" y="400" width="468" height="52" rx="10" fill="#1C1C2E" stroke="#2A2A40" stroke-width="1"/>
    <text x="52" y="432" fill="#E8E8F0" font-family="sans-serif" font-size="13">录制桌面</text>
    <text x="24" y="490" fill="#E8E8F0" font-family="sans-serif" font-size="14" font-weight="600">🔗 分享</text>
    <rect x="16" y="504" width="468" height="52" rx="10" fill="#1C1C2E" stroke="#2A2A40" stroke-width="1"/>
    <text x="52" y="536" fill="#E8E8F0" font-family="sans-serif" font-size="13">分享到网络</text>
    <rect x="16" y="570" width="468" height="52" rx="10" fill="#1C1C2E" stroke="#2A2A40" stroke-width="1"/>
    <text x="52" y="602" fill="#E8E8F0" font-family="sans-serif" font-size="13">自动复制到剪贴板</text>
    <rect x="424" y="586" width="44" height="24" rx="12" fill="#6C63FF"/>
    <circle cx="454" cy="598" r="9" fill="white"/>
  </g>
  <text x="640" y="775" fill="#8888AA" font-family="sans-serif" font-size="14" text-anchor="middle">简洁直观的弹窗界面，快速访问所有截图和录制模式</text>
</svg>