<svg xmlns="http://www.w3.org/2000/svg" width="1280" height="800" viewBox="0 0 1280 800">
  <defs>
    <linearGradient id="iconGrad" x1="0%" y1="0%" x2="100%" y2="100%">
      <stop offset="0%" style="stop-color:#FCEABB"/>
      <stop offset="100%" style="stop-color:#F8B500"/>
    </linearGradient>
    <linearGradient id="bgGrad" x1="0%" y1="0%" x2="100%" y2="100%">
      <stop offset="0%" style="stop-color:#0A0A0A"/>
      <stop offset="100%" style="stop-color:#141414"/>
    </linearGradient>
    <linearGradient id="btnGrad" x1="0%" y1="0%" x2="100%" y2="0%">
      <stop offset="0%" style="stop-color:#FCEABB"/>
      <stop offset="100%" style="stop-color:#F8B500"/>
    </linearGradient>
  </defs>
  <rect width="1280" height="800" fill="url(#bgGrad)"/>
  <g transform="translate(80, 30)">
    <rect x="0" y="0" width="1120" height="740" rx="12" fill="#141414" stroke="#2A2A2A" stroke-width="1"/>
    <rect x="0" y="0" width="1120" height="64" rx="12" fill="#1C1C1C"/>
    <rect x="0" y="48" width="1120" height="16" fill="#1C1C1C"/>
    <text x="24" y="28" fill="#F5F5F5" font-size="16">🎬</text>
    <text x="52" y="38" fill="#F5F5F5" font-family="sans-serif" font-size="16" font-weight="700">录制预览</text>
    <text x="160" y="36" fill="#A0A0A0" font-family="sans-serif" font-size="12">⏱ 1分23秒</text>
    <text x="260" y="36" fill="#A0A0A0" font-family="sans-serif" font-size="12">📦 4.2 MB</text>
    <rect x="780" y="16" width="120" height="32" rx="6" fill="#141414" stroke="#2A2A2A" stroke-width="1"/>
    <text x="800" y="37" fill="#F8B500" font-family="sans-serif" font-size="12" font-weight="600">MP4 (H.264) ▾</text>
    <rect x="910" y="16" width="130" height="32" rx="8" fill="url(#btnGrad)"/>
    <text x="936" y="37" fill="white" font-family="sans-serif" font-size="12" font-weight="600">转换中：67%</text>
    <rect x="1050" y="16" width="52" height="32" rx="8" fill="#EF4444" opacity="0.15" stroke="#EF4444" stroke-width="1"/>
    <text x="1064" y="37" fill="#EF4444" font-size="12">🗑️</text>
    <rect x="0" y="64" width="1120" height="3" fill="#1C1C1C"/>
    <rect x="0" y="64" width="750" height="3" fill="url(#btnGrad)"/>
    <rect x="40" y="90" width="1040" height="585" rx="8" fill="#0a0a1a"/>
    <rect x="80" y="120" width="960" height="500" rx="4" fill="#111128"/>
    <rect x="120" y="150" width="400" height="30" rx="4" fill="#A0A0A0" opacity="0.1"/>
    <rect x="120" y="200" width="880" height="16" rx="3" fill="#A0A0A0" opacity="0.08"/>
    <rect x="120" y="260" width="800" height="16" rx="3" fill="#A0A0A0" opacity="0.08"/>
    <circle cx="560" cy="400" r="40" fill="rgba(0,0,0,0.5)"/>
    <polygon points="548,380 548,420 580,400" fill="white"/>
    <rect x="40" y="640" width="1040" height="35" fill="rgba(0,0,0,0.6)"/>
    <text x="60" y="663" fill="white" font-family="monospace" font-size="11">0:45 / 1:23</text>
    <rect x="170" y="654" width="800" height="4" rx="2" fill="rgba(255,255,255,0.2)"/>
    <rect x="170" y="654" width="420" height="4" rx="2" fill="#F8B500"/>
    <circle cx="590" cy="656" r="6" fill="white"/>
  </g>
  <text x="640" y="790" fill="#A0A0A0" font-family="sans-serif" font-size="14" text-anchor="middle">预览录制内容，支持 WebM 或 MP4 导出，实时显示转换进度</text>
</svg>